<mxfile host="app.diagrams.net" modified="2024-05-22T04:50:40.558Z" agent="Mozilla/5.0 (Windows NT 10.0; Win64; x64) AppleWebKit/537.36 (KHTML, like Gecko) Chrome/125.0.0.0 Safari/537.36 Edg/125.0.0.0" etag="vHRXpq-4yArMXrbNkw6u" version="24.4.4" type="device">
  <diagram name="Страница — 1" id="cUECM4jlNsAL67lo6unL">
    <mxGraphModel dx="466" dy="510" grid="1" gridSize="10" guides="1" tooltips="1" connect="1" arrows="1" fold="1" page="1" pageScale="1" pageWidth="827" pageHeight="1169" math="0" shadow="0">
      <root>
        <mxCell id="0" />
        <mxCell id="1" parent="0" />
        <mxCell id="DOUdlUP23jN83_SCXn87-4" style="edgeStyle=orthogonalEdgeStyle;rounded=0;orthogonalLoop=1;jettySize=auto;html=1;entryX=0;entryY=0.5;entryDx=0;entryDy=0;" parent="1" source="DOUdlUP23jN83_SCXn87-1" target="DOUdlUP23jN83_SCXn87-2" edge="1">
          <mxGeometry relative="1" as="geometry">
            <Array as="points">
              <mxPoint x="80" y="140" />
            </Array>
          </mxGeometry>
        </mxCell>
        <mxCell id="DOUdlUP23jN83_SCXn87-5" style="edgeStyle=orthogonalEdgeStyle;rounded=0;orthogonalLoop=1;jettySize=auto;html=1;entryX=0;entryY=0.5;entryDx=0;entryDy=0;" parent="1" source="D_loNcAtFo_6ytX7P_Oe-1" target="DOUdlUP23jN83_SCXn87-3" edge="1">
          <mxGeometry relative="1" as="geometry">
            <Array as="points">
              <mxPoint x="80" y="400" />
            </Array>
            <mxPoint x="30" y="320" as="sourcePoint" />
          </mxGeometry>
        </mxCell>
        <mxCell id="D_loNcAtFo_6ytX7P_Oe-2" style="edgeStyle=orthogonalEdgeStyle;rounded=0;orthogonalLoop=1;jettySize=auto;html=1;entryX=0.5;entryY=0;entryDx=0;entryDy=0;" edge="1" parent="1" source="DOUdlUP23jN83_SCXn87-1" target="D_loNcAtFo_6ytX7P_Oe-1">
          <mxGeometry relative="1" as="geometry" />
        </mxCell>
        <mxCell id="DOUdlUP23jN83_SCXn87-1" value="&lt;div&gt;&lt;span style=&quot;background-color: initial;&quot;&gt;Меню&lt;/span&gt;&lt;br&gt;&lt;/div&gt;" style="rounded=0;whiteSpace=wrap;html=1;" parent="1" vertex="1">
          <mxGeometry x="20" y="160" width="120" height="60" as="geometry" />
        </mxCell>
        <mxCell id="DOUdlUP23jN83_SCXn87-29" style="edgeStyle=orthogonalEdgeStyle;rounded=0;orthogonalLoop=1;jettySize=auto;html=1;" parent="1" source="DOUdlUP23jN83_SCXn87-2" target="DOUdlUP23jN83_SCXn87-6" edge="1">
          <mxGeometry relative="1" as="geometry">
            <Array as="points">
              <mxPoint x="370" y="120" />
              <mxPoint x="370" y="120" />
            </Array>
          </mxGeometry>
        </mxCell>
        <mxCell id="DOUdlUP23jN83_SCXn87-2" value="Настройки" style="rounded=0;whiteSpace=wrap;html=1;" parent="1" vertex="1">
          <mxGeometry x="220" y="110" width="120" height="60" as="geometry" />
        </mxCell>
        <mxCell id="DOUdlUP23jN83_SCXn87-12" style="edgeStyle=orthogonalEdgeStyle;rounded=0;orthogonalLoop=1;jettySize=auto;html=1;entryX=0;entryY=0.5;entryDx=0;entryDy=0;" parent="1" source="DOUdlUP23jN83_SCXn87-3" target="DOUdlUP23jN83_SCXn87-11" edge="1">
          <mxGeometry relative="1" as="geometry">
            <Array as="points">
              <mxPoint x="270" y="380" />
              <mxPoint x="270" y="360" />
            </Array>
          </mxGeometry>
        </mxCell>
        <mxCell id="DOUdlUP23jN83_SCXn87-18" style="edgeStyle=orthogonalEdgeStyle;rounded=0;orthogonalLoop=1;jettySize=auto;html=1;exitX=0;exitY=0.5;exitDx=0;exitDy=0;" parent="1" source="DOUdlUP23jN83_SCXn87-17" target="DOUdlUP23jN83_SCXn87-3" edge="1">
          <mxGeometry relative="1" as="geometry">
            <Array as="points">
              <mxPoint x="290" y="440" />
              <mxPoint x="290" y="420" />
            </Array>
          </mxGeometry>
        </mxCell>
        <mxCell id="DOUdlUP23jN83_SCXn87-3" value="Игра" style="rounded=0;whiteSpace=wrap;html=1;" parent="1" vertex="1">
          <mxGeometry x="140" y="370" width="120" height="60" as="geometry" />
        </mxCell>
        <mxCell id="DOUdlUP23jN83_SCXn87-16" style="edgeStyle=orthogonalEdgeStyle;rounded=0;orthogonalLoop=1;jettySize=auto;html=1;" parent="1" source="DOUdlUP23jN83_SCXn87-6" target="DOUdlUP23jN83_SCXn87-3" edge="1">
          <mxGeometry relative="1" as="geometry">
            <mxPoint x="480" y="180" as="sourcePoint" />
            <Array as="points">
              <mxPoint x="540" y="240" />
              <mxPoint x="230" y="240" />
            </Array>
          </mxGeometry>
        </mxCell>
        <mxCell id="DOUdlUP23jN83_SCXn87-33" style="edgeStyle=orthogonalEdgeStyle;rounded=0;orthogonalLoop=1;jettySize=auto;html=1;" parent="1" source="DOUdlUP23jN83_SCXn87-6" target="DOUdlUP23jN83_SCXn87-2" edge="1">
          <mxGeometry relative="1" as="geometry">
            <Array as="points">
              <mxPoint x="390" y="160" />
              <mxPoint x="390" y="160" />
            </Array>
          </mxGeometry>
        </mxCell>
        <mxCell id="DOUdlUP23jN83_SCXn87-6" value="Хранилище параметров" style="rounded=0;whiteSpace=wrap;html=1;" parent="1" vertex="1">
          <mxGeometry x="440" y="110" width="120" height="60" as="geometry" />
        </mxCell>
        <mxCell id="DOUdlUP23jN83_SCXn87-21" style="edgeStyle=orthogonalEdgeStyle;rounded=0;orthogonalLoop=1;jettySize=auto;html=1;entryX=1;entryY=0.5;entryDx=0;entryDy=0;exitX=0.5;exitY=1;exitDx=0;exitDy=0;" parent="1" source="DOUdlUP23jN83_SCXn87-10" edge="1">
          <mxGeometry relative="1" as="geometry">
            <Array as="points">
              <mxPoint x="750" y="520" />
            </Array>
            <mxPoint x="260" y="520" as="targetPoint" />
          </mxGeometry>
        </mxCell>
        <mxCell id="DOUdlUP23jN83_SCXn87-24" value="" style="edgeStyle=orthogonalEdgeStyle;rounded=0;orthogonalLoop=1;jettySize=auto;html=1;" parent="1" source="DOUdlUP23jN83_SCXn87-23" target="DOUdlUP23jN83_SCXn87-10" edge="1">
          <mxGeometry relative="1" as="geometry" />
        </mxCell>
        <mxCell id="DOUdlUP23jN83_SCXn87-10" value="Фигуры" style="rounded=0;whiteSpace=wrap;html=1;" parent="1" vertex="1">
          <mxGeometry x="690" y="330" width="120" height="60" as="geometry" />
        </mxCell>
        <mxCell id="DOUdlUP23jN83_SCXn87-13" style="edgeStyle=orthogonalEdgeStyle;rounded=0;orthogonalLoop=1;jettySize=auto;html=1;" parent="1" source="DOUdlUP23jN83_SCXn87-11" target="DOUdlUP23jN83_SCXn87-23" edge="1">
          <mxGeometry relative="1" as="geometry">
            <Array as="points" />
          </mxGeometry>
        </mxCell>
        <mxCell id="DOUdlUP23jN83_SCXn87-11" value="Обработчик&amp;nbsp;&lt;div&gt;событий&lt;/div&gt;" style="rounded=0;whiteSpace=wrap;html=1;" parent="1" vertex="1">
          <mxGeometry x="283.5" y="330" width="120" height="60" as="geometry" />
        </mxCell>
        <mxCell id="DOUdlUP23jN83_SCXn87-17" value="Таймер" style="rounded=0;whiteSpace=wrap;html=1;" parent="1" vertex="1">
          <mxGeometry x="430" y="410" width="120" height="60" as="geometry" />
        </mxCell>
        <mxCell id="DOUdlUP23jN83_SCXn87-22" style="edgeStyle=orthogonalEdgeStyle;rounded=0;orthogonalLoop=1;jettySize=auto;html=1;entryX=0.5;entryY=1;entryDx=0;entryDy=0;" parent="1" target="DOUdlUP23jN83_SCXn87-3" edge="1">
          <mxGeometry relative="1" as="geometry">
            <mxPoint x="200" y="490" as="sourcePoint" />
          </mxGeometry>
        </mxCell>
        <mxCell id="DOUdlUP23jN83_SCXn87-19" value="Учёт игровых событий" style="rounded=0;whiteSpace=wrap;html=1;" parent="1" vertex="1">
          <mxGeometry x="140" y="490" width="120" height="60" as="geometry" />
        </mxCell>
        <mxCell id="DOUdlUP23jN83_SCXn87-36" style="edgeStyle=orthogonalEdgeStyle;rounded=0;orthogonalLoop=1;jettySize=auto;html=1;" parent="1" source="DOUdlUP23jN83_SCXn87-23" target="DOUdlUP23jN83_SCXn87-3" edge="1">
          <mxGeometry relative="1" as="geometry">
            <mxPoint x="260" y="470" as="targetPoint" />
            <Array as="points">
              <mxPoint x="590" y="490" />
              <mxPoint x="320" y="490" />
              <mxPoint x="320" y="470" />
              <mxPoint x="230" y="470" />
            </Array>
          </mxGeometry>
        </mxCell>
        <mxCell id="DOUdlUP23jN83_SCXn87-23" value="Доска" style="rounded=0;whiteSpace=wrap;html=1;" parent="1" vertex="1">
          <mxGeometry x="500" y="330" width="120" height="60" as="geometry" />
        </mxCell>
        <mxCell id="DOUdlUP23jN83_SCXn87-27" value="&lt;font style=&quot;font-size: 10px;&quot;&gt;переход к настройкам&lt;/font&gt;" style="text;html=1;align=center;verticalAlign=middle;whiteSpace=wrap;rounded=0;" parent="1" vertex="1">
          <mxGeometry x="60" y="120" width="150" height="20" as="geometry" />
        </mxCell>
        <mxCell id="DOUdlUP23jN83_SCXn87-28" value="&lt;font style=&quot;font-size: 10px;&quot;&gt;переход в игру на 2их&lt;/font&gt;&lt;div&gt;&lt;span style=&quot;font-size: 10px;&quot;&gt;за одним компьютером&lt;/span&gt;&lt;/div&gt;" style="text;html=1;align=center;verticalAlign=middle;whiteSpace=wrap;rounded=0;" parent="1" vertex="1">
          <mxGeometry y="370" width="130" height="30" as="geometry" />
        </mxCell>
        <mxCell id="DOUdlUP23jN83_SCXn87-32" value="&lt;font style=&quot;font-size: 10px;&quot;&gt;сохранение&lt;/font&gt;" style="text;html=1;align=center;verticalAlign=middle;whiteSpace=wrap;rounded=0;" parent="1" vertex="1">
          <mxGeometry x="310" y="100" width="160" height="20" as="geometry" />
        </mxCell>
        <mxCell id="DOUdlUP23jN83_SCXn87-34" value="&lt;font style=&quot;font-size: 10px;&quot;&gt;получение&lt;/font&gt;" style="text;html=1;align=center;verticalAlign=middle;whiteSpace=wrap;rounded=0;" parent="1" vertex="1">
          <mxGeometry x="310" y="140" width="160" height="20" as="geometry" />
        </mxCell>
        <mxCell id="DOUdlUP23jN83_SCXn87-35" value="&lt;font style=&quot;font-size: 10px;&quot;&gt;получение&lt;/font&gt;" style="text;html=1;align=center;verticalAlign=middle;whiteSpace=wrap;rounded=0;" parent="1" vertex="1">
          <mxGeometry x="300" y="290" width="160" height="20" as="geometry" />
        </mxCell>
        <mxCell id="DOUdlUP23jN83_SCXn87-38" value="&lt;font style=&quot;font-size: 10px;&quot;&gt;отображение данных на экран&lt;/font&gt;" style="text;html=1;align=center;verticalAlign=middle;whiteSpace=wrap;rounded=0;" parent="1" vertex="1">
          <mxGeometry x="130" y="450" width="70" height="20" as="geometry" />
        </mxCell>
        <mxCell id="DOUdlUP23jN83_SCXn87-39" value="&lt;font style=&quot;font-size: 10px;&quot;&gt;по истечению таймера игра завершится&lt;/font&gt;" style="text;html=1;align=center;verticalAlign=middle;whiteSpace=wrap;rounded=0;" parent="1" vertex="1">
          <mxGeometry x="300" y="410" width="116.5" height="30" as="geometry" />
        </mxCell>
        <mxCell id="DOUdlUP23jN83_SCXn87-41" value="&lt;span style=&quot;font-size: 10px;&quot;&gt;позиция мыши конвертируется в координаты&lt;/span&gt;" style="text;html=1;align=center;verticalAlign=middle;whiteSpace=wrap;rounded=0;" parent="1" vertex="1">
          <mxGeometry x="400" y="330" width="110" height="20" as="geometry" />
        </mxCell>
        <mxCell id="DOUdlUP23jN83_SCXn87-42" value="&lt;font style=&quot;font-size: 10px;&quot;&gt;изменяет позицию, удаляет или изменяет фигуру&lt;/font&gt;" style="text;html=1;align=center;verticalAlign=middle;whiteSpace=wrap;rounded=0;" parent="1" vertex="1">
          <mxGeometry x="610" y="320" width="90" height="20" as="geometry" />
        </mxCell>
        <mxCell id="DOUdlUP23jN83_SCXn87-43" value="&lt;font style=&quot;font-size: 10px;&quot;&gt;состояние фигуры передаётся в учёт&lt;/font&gt;" style="text;html=1;align=center;verticalAlign=middle;whiteSpace=wrap;rounded=0;" parent="1" vertex="1">
          <mxGeometry x="630" y="490" width="130" height="30" as="geometry" />
        </mxCell>
        <mxCell id="DOUdlUP23jN83_SCXn87-44" value="&lt;font style=&quot;font-size: 10px;&quot;&gt;возвращает подсветку и вид фигур на доске&lt;/font&gt;" style="text;html=1;align=center;verticalAlign=middle;whiteSpace=wrap;rounded=0;" parent="1" vertex="1">
          <mxGeometry x="290" y="470" width="330" height="20" as="geometry" />
        </mxCell>
        <mxCell id="D_loNcAtFo_6ytX7P_Oe-1" value="Меню выбора режима игры" style="rounded=0;whiteSpace=wrap;html=1;" vertex="1" parent="1">
          <mxGeometry x="20" y="270" width="120" height="60" as="geometry" />
        </mxCell>
        <mxCell id="D_loNcAtFo_6ytX7P_Oe-3" value="&lt;font style=&quot;font-size: 10px;&quot;&gt;переход к выбору&lt;/font&gt;&lt;div&gt;&lt;span style=&quot;font-size: 10px; background-color: initial;&quot;&gt;&amp;nbsp;режима игры&lt;/span&gt;&lt;/div&gt;" style="text;html=1;align=center;verticalAlign=middle;whiteSpace=wrap;rounded=0;" vertex="1" parent="1">
          <mxGeometry x="85" y="230" width="100" height="20" as="geometry" />
        </mxCell>
      </root>
    </mxGraphModel>
  </diagram>
</mxfile>
